<!-- Generator: Adobe Illustrator 17.0.0, SVG Export Plug-In  -->
<svg version="1.1"
     xmlns="http://www.w3.org/2000/svg" xmlns:xlink="http://www.w3.org/1999/xlink" xmlns:a="http://ns.adobe.com/AdobeSVGViewerExtensions/3.0/"
     x="0px" y="0px" width="70.866px" height="70.866px" viewBox="0 0 70.866 70.866" enable-background="new 0 0 70.866 70.866"
     xml:space="preserve">
<defs>
</defs>
<path fill="#FFFFFF" d="M0,0v70.866h70.866V0H0z M65.795,40.299c0.731,1.097,0.731,2.376,0,3.473l-1.828,2.559l1.097,5.301
    c0.183,0.914,0,1.828-0.731,2.559c-0.731,0.731-1.828,0.914-2.742,0.548c-0.548-0.183-1.097-0.548-1.645-0.731
    c-1.28-0.731-2.194-1.097-4.387-1.28c-2.011-0.183-4.022,0.366-5.667,1.097l-0.366,0.183c-4.387,2.376-10.603,3.656-17.367,3.656
    c-13.345,0-23.582-5.119-23.582-11.883V25.674c0-6.764,10.054-11.883,23.582-11.883c12.979,0,23.034,4.936,23.582,11.334
    c-1.28,0-2.559,0.183-3.656,0.366c-0.183-3.839-8.226-8.044-19.926-8.044c-11.7,0-19.926,4.387-19.926,8.226v20.109
    c0,3.839,8.226,8.226,19.926,8.226c6.033,0,11.7-1.097,15.539-3.108l0.183-0.183c2.194-1.28,5.119-2.011,8.044-1.828
    c2.742,0.183,4.205,0.731,5.484,1.462l-0.731-3.108c-0.366-1.097-0.183-2.011,0.366-2.925l1.28-2.194l-1.645-2.011
    c-0.731-1.097-0.731-2.559,0.183-3.473l1.828-2.011c-0.914-0.914-3.656-2.011-7.129-2.011c-2.194,0-4.387,0.366-5.85,1.097
    l-0.366,0.183c-4.387,2.377-10.603,3.656-17.367,3.656c-6.033,0-11.7-1.097-16.087-3.108v-4.022
    c4.022,2.194,9.872,3.473,16.087,3.473c6.033,0,11.7-1.097,15.539-3.108l0.183-0.183c2.011-1.097,4.936-1.828,8.044-1.828
    c4.57,0,8.592,1.462,10.237,3.656c0.914,1.28,0.731,3.108-0.366,4.387l-1.28,1.462L65.795,40.299z M42.579,26.406
    c-1.462,0.366-2.925,0.731-4.57,0.914c-1.28-0.548-3.108-1.097-5.85-1.097s-4.753,0.548-5.85,1.097
    c-1.645-0.183-3.108-0.548-4.57-0.914c1.462-2.376,5.484-4.022,10.42-4.022S41.116,24.029,42.579,26.406z"/>
</svg>
