<?xml version="1.0" encoding="UTF-8" standalone="no"?>
<svg width="252px" height="252px" viewBox="0 0 252 252" version="1.1" xmlns="http://www.w3.org/2000/svg" xmlns:xlink="http://www.w3.org/1999/xlink" xmlns:sketch="http://www.bohemiancoding.com/sketch/ns">
    <!-- Generator: Sketch 3.4.4 (17249) - http://www.bohemiancoding.com/sketch -->
    <title>collaborative-learning</title>
    <desc>Created with Sketch.</desc>
    <defs></defs>
    <g id="Page-1" stroke="none" stroke-width="1" fill="none" fill-rule="evenodd" sketch:type="MSPage">
        <g id="collaborative-learning" sketch:type="MSArtboardGroup" fill="#FF4BCD">
            <g sketch:type="MSLayerGroup" transform="translate(58.000000, 30.000000)" id="Group">
                <g sketch:type="MSShapeGroup">
                    <ellipse id="Oval" cx="20.1004085" cy="148.77019" rx="12.0598592" ry="12.0625"></ellipse>
                    <path d="M20.1004085,164.85481 C8.99761972,164.85481 0,173.85247 0,184.95769 L0,193 L40.1988873,193 L40.1988873,184.95769 C40.1988873,173.85247 31.2012676,164.85481 20.1004085,164.85481 L20.1004085,164.85481 Z" id="Shape"></path>
                    <ellipse id="Oval" cx="68.3398451" cy="148.77019" rx="12.0598592" ry="12.0625"></ellipse>
                    <path d="M68.3398451,164.85481 C57.2370563,164.85481 48.2394366,173.85247 48.2394366,184.95769 L48.2394366,193 L88.4383239,193 L88.4383239,184.95769 C88.4383239,173.85247 79.4407042,164.85481 68.3398451,164.85481 L68.3398451,164.85481 Z" id="Shape"></path>
                    <ellipse id="Oval" cx="116.579282" cy="148.77019" rx="12.0598592" ry="12.0625"></ellipse>
                    <path d="M116.579282,164.85481 C105.476493,164.85481 96.4788732,173.85247 96.4788732,184.95769 L96.4788732,193 L136.675831,193 L136.675831,184.95769 C136.677761,173.85247 127.680141,164.85481 116.579282,164.85481 L116.579282,164.85481 Z" id="Shape"></path>
                    <path d="M112.558042,128.66731 C113.791042,128.66731 114.981592,128.10182 115.753423,127.08857 C116.797324,125.72213 116.855211,123.84617 115.90393,122.41604 C115.840254,122.31761 110.252197,113.84105 108.855183,104.54231 L116.579282,104.54231 C123.228606,104.54231 128.639141,99.13059 128.639141,92.47981 L128.639141,12.0625 C128.639141,5.41172 123.228606,0 116.579282,0 L20.1004085,0 C13.4510845,0 8.0405493,5.41172 8.0405493,12.0625 L8.0405493,92.47981 C8.0405493,99.13252 13.4510845,104.54231 20.1004085,104.54231 L27.8206479,104.54231 C26.4178451,113.80631 20.8355775,122.32533 20.7719014,122.42183 C19.8244789,123.85003 19.8842958,125.72406 20.9301268,127.08857 C21.7077465,128.10182 22.8963662,128.66731 24.1216479,128.66731 C24.5461549,128.66731 24.9725915,128.59976 25.3913099,128.45694 C26.4062676,128.12112 48.5404507,120.54394 51.836169,104.54231 L57.4010704,104.54231 L64.5250704,125.91899 C65.0711408,127.55949 66.6051549,128.66731 68.3379155,128.66731 C70.0706761,128.66731 71.6046901,127.55949 72.1526901,125.91899 L79.2747606,104.54231 L84.8222958,104.54231 C88.1122254,120.55166 110.269563,128.12305 111.286451,128.45694 C111.705169,128.59976 112.135465,128.66731 112.558042,128.66731 L112.558042,128.66731 Z M92.4595634,100.52019 C92.4595634,98.29876 90.657338,96.5 88.4383239,96.5 L76.3784648,96.5 C74.6476338,96.5 73.1155493,97.60782 72.5656197,99.25025 L68.3398451,111.93035 L64.1140704,99.25025 C63.5525634,97.56536 61.9838169,96.51737 60.3012254,96.5193 L60.3012254,96.5 L48.2394366,96.5 C46.0204225,96.5 44.2201268,98.29876 44.2201268,100.52019 C44.2201268,106.95481 38.7053944,112.24301 33.0015634,115.88106 C34.7266056,111.40732 36.181507,106.00139 36.181507,100.52019 C36.181507,98.29876 34.3812113,96.5 32.1621972,96.5 L20.102338,96.5 C17.8852535,96.5 16.0830282,94.69931 16.0830282,92.47981 L16.0830282,12.0625 C16.0830282,9.843 17.8871831,8.04231 20.102338,8.04231 L116.581211,8.04231 C118.796366,8.04231 120.602451,9.843 120.602451,12.0625 L120.602451,92.47981 C120.602451,94.69931 118.796366,96.5 116.581211,96.5 L104.521352,96.5 C102.302338,96.5 100.500113,98.29876 100.500113,100.52019 C100.500113,105.98595 101.951155,111.37258 103.666549,115.84246 C98.1537465,112.37232 92.4595634,107.17483 92.4595634,100.52019 L92.4595634,100.52019 Z" id="Shape"></path>
                    <path d="M68.3398451,32.16731 C59.4599296,32.16731 52.2606761,39.36814 52.2606761,48.25 C52.2606761,54.18668 55.3653662,57.64331 58.1265915,62.44322 C59.1550563,64.23426 60.3012254,68.35288 60.3012254,70.36394 C60.3012254,71.47369 61.2004085,72.375 62.3118451,72.375 L74.3717042,72.375 C75.4812113,72.375 76.3803944,71.47369 76.3803944,70.36394 C76.3803944,68.35288 77.528493,64.23233 78.5569577,62.44322 C81.3181831,57.64331 84.4228732,54.18668 84.4228732,48.25 C84.4190141,39.36814 77.217831,32.16731 68.3398451,32.16731 L68.3398451,32.16731 Z" id="Shape"></path>
                    <path d="M74.3697746,76.39519 L62.3099155,76.39519 C61.2004085,76.39519 60.2992958,77.29457 60.2992958,78.40625 C60.2992958,79.51793 61.1984789,80.41731 62.3099155,80.41731 L74.3697746,80.41731 C75.4792817,80.41731 76.3784648,79.51793 76.3784648,78.40625 C76.3784648,77.29457 75.4792817,76.39519 74.3697746,76.39519 L74.3697746,76.39519 Z" id="Shape"></path>
                    <path d="M71.3538451,84.4375 L65.3239155,84.4375 C64.2144085,84.4375 63.3132958,85.33881 63.3132958,86.44856 C63.3132958,87.55831 64.2124789,88.45962 65.3239155,88.45962 L71.3538451,88.45962 C72.4633521,88.45962 73.3625352,87.55831 73.3625352,86.44856 C73.3625352,85.33881 72.4633521,84.4375 71.3538451,84.4375 L71.3538451,84.4375 Z" id="Shape"></path>
                    <path d="M68.3398451,28.14519 C69.4493521,28.14519 70.3504648,27.24388 70.3504648,26.13413 L70.3504648,18.09375 C70.3504648,16.984 69.4512817,16.08269 68.3398451,16.08269 C67.2284085,16.08269 66.3292254,16.984 66.3292254,18.09375 L66.3292254,26.13606 C66.3292254,27.24581 67.2284085,28.14519 68.3398451,28.14519 L68.3398451,28.14519 Z" id="Shape"></path>
                    <path d="M46.2288169,46.23894 L38.1882676,46.23894 C37.0787606,46.23894 36.1776479,47.13832 36.1776479,48.25 C36.1776479,49.36168 37.076831,50.26106 38.1882676,50.26106 L46.2288169,50.26106 C47.3383239,50.26106 48.2394366,49.35975 48.2394366,48.25 C48.2394366,47.14025 47.3383239,46.23894 46.2288169,46.23894 L46.2288169,46.23894 Z" id="Shape"></path>
                    <path d="M53.3354507,30.39943 L47.6509155,24.71365 C46.8655775,23.92814 45.5939859,23.92814 44.8086479,24.71365 C44.0233099,25.49916 44.0233099,26.77103 44.8086479,27.55654 L50.4931831,33.24232 C50.8868169,33.63604 51.4020141,33.83097 51.9152817,33.83097 C52.4285493,33.83097 52.9437465,33.63411 53.3354507,33.24232 C54.1188592,32.45681 54.1188592,31.18494 53.3354507,30.39943 L53.3354507,30.39943 Z" id="Shape"></path>
                    <path d="M91.8710423,24.71365 C91.0857042,23.92814 89.8141127,23.92814 89.0268451,24.71365 L83.3423099,30.39943 C82.5589014,31.18494 82.5589014,32.45681 83.3423099,33.24232 C83.7359437,33.63604 84.2511408,33.83097 84.7624789,33.83097 C85.2776761,33.83097 85.7909437,33.63411 86.1845775,33.24232 L91.8691127,27.55654 C92.6544507,26.77103 92.6544507,25.49916 91.8710423,24.71365 L91.8710423,24.71365 Z" id="Shape"></path>
                    <path d="M98.489493,46.23894 L90.4508732,46.23894 C89.3394366,46.23894 88.4383239,47.13832 88.4383239,48.25 C88.4383239,49.36168 89.3394366,50.26106 90.4508732,50.26106 L98.489493,50.26106 C99.599,50.26106 100.498183,49.36168 100.498183,48.25 C100.498183,47.13832 99.599,46.23894 98.489493,46.23894 L98.489493,46.23894 Z" id="Shape"></path>
                </g>
            </g>
        </g>
    </g>
</svg>
