<?xml version="1.0" encoding="UTF-8" standalone="no"?>
<svg width="252px" height="252px" viewBox="0 0 252 252" version="1.1" xmlns="http://www.w3.org/2000/svg" xmlns:xlink="http://www.w3.org/1999/xlink" xmlns:sketch="http://www.bohemiancoding.com/sketch/ns">
    <!-- Generator: Sketch 3.4.4 (17249) - http://www.bohemiancoding.com/sketch -->
    <title>envelope</title>
    <desc>Created with Sketch.</desc>
    <defs></defs>
    <g id="Page-1" stroke="none" stroke-width="1" fill="none" fill-rule="evenodd" sketch:type="MSPage">
        <g id="envelope" sketch:type="MSArtboardGroup" fill="#FF4BCD">
            <g sketch:type="MSLayerGroup" transform="translate(22.000000, 72.000000)" id="Group">
                <g sketch:type="MSShapeGroup">
                    <g id="Shape">
                        <path d="M203.252174,4.54166667 C201.669565,2.95208333 199.408696,2.04375 197.147826,2.04375 L140.173913,1.81666667 C130.452174,1.81666667 124.573913,9.76458333 124.347826,17.2583333 L124.347826,19.9833333 L83.6521739,19.9833333 L83.6521739,17.4854167 C83.6521739,13.3979167 82.0695652,9.31041667 79.1304348,6.35833333 C76.1913043,3.40625 72.3478261,1.81666667 68.0521739,1.81666667 L68.0521739,1.81666667 L10.626087,2.04375 C5.87826087,2.04375 1.80869565,6.35833333 1.80869565,11.58125 C1.80869565,14.30625 2.93913043,16.8041667 4.74782609,18.6208333 C6.33043478,20.2104167 8.59130435,21.11875 10.626087,21.11875 L10.626087,21.11875 L14.2434783,21.11875 C14.0173913,22.0270833 13.7913043,22.9354167 13.7913043,23.84375 C13.7913043,26.56875 14.9217391,29.0666667 16.7304348,30.8833333 C18.3130435,32.4729167 20.573913,33.38125 22.6086957,33.38125 L22.6086957,33.38125 L22.8347826,33.38125 C22.6086957,34.2895833 22.3826087,34.9708333 22.3826087,35.8791667 C22.3826087,38.6041667 23.5130435,41.1020833 25.3217391,42.91875 C26.9043478,44.5083333 28.9391304,45.4166667 31.2,45.4166667 L31.2,45.4166667 L52.4521739,45.1895833 C54.4869565,45.1895833 55.8434783,43.6 55.8434783,41.55625 C55.8434783,39.7395833 54.2608696,38.15 52.4521739,38.15 L52.4521739,38.15 L51.0956522,38.15 L31.2,38.3770833 L31.2,38.3770833 C30.7478261,38.3770833 30.2956522,38.15 30.0695652,37.9229167 C29.6173913,37.46875 29.3913043,36.7875 29.3913043,35.8791667 C29.3913043,34.5166667 30.2956522,33.38125 31.2,33.38125 L47.7043478,33.1541667 C49.7391304,33.1541667 51.0956522,31.5645833 51.0956522,29.5208333 C51.0956522,27.7041667 49.5130435,26.1145833 47.7043478,26.1145833 L47.7043478,26.1145833 L41.373913,26.1145833 L40.6956522,26.1145833 L22.3826087,26.3416667 L22.3826087,26.3416667 C21.9304348,26.3416667 21.4782609,26.1145833 21.2521739,25.8875 C20.8,25.4333333 20.573913,24.7520833 20.573913,23.84375 C20.573913,22.48125 21.4782609,21.3458333 22.3826087,21.3458333 L38.8869565,21.11875 C40.9217391,21.11875 42.2782609,19.5291667 42.2782609,17.4854167 C42.2782609,15.4416667 40.6956522,14.0791667 38.6608696,14.0791667 L29.8434783,14.0791667 L29.1652174,14.0791667 L29.1652174,14.0791667 L10.173913,14.30625 L10.173913,14.30625 C9.72173913,14.30625 9.26956522,14.0791667 9.04347826,13.8520833 C9.26956522,13.1708333 9.04347826,12.4895833 9.04347826,11.58125 C9.04347826,10.21875 9.72173913,9.08333333 10.8521739,9.08333333 L67.826087,8.85625 L67.826087,8.85625 C70.3130435,8.85625 72.573913,9.76458333 73.9304348,11.3541667 C75.5130435,12.94375 76.4173913,15.2145833 76.4173913,17.4854167 L76.4173913,19.9833333 L68.2782609,19.9833333 C66.6956522,19.9833333 65.3391304,20.4375 64.2086957,21.11875 C63.3043478,21.11875 62.626087,21.5729167 61.9478261,22.0270833 C61.0434783,22.9354167 60.8173913,24.2979167 61.0434783,25.6604167 C61.2695652,26.3416667 61.0434783,26.7958333 61.0434783,27.25 L61.0434783,42.6916667 L61.0434783,74.25625 C61.0434783,78.34375 64.4347826,81.75 68.5043478,81.75 L120.956522,81.75 L120.730435,75.61875 L120.730435,74.7104167 L70.9913043,74.7104167 L90.2086957,55.4083333 L95.8608696,61.0854167 C98.1217391,63.35625 101.06087,64.4916667 103.773913,64.4916667 C106.713043,64.4916667 109.652174,63.35625 111.686957,61.0854167 L117.33913,55.4083333 L136.556522,74.7104167 L135.878261,74.7104167 L141.982609,81.06875 C144.695652,79.9333333 146.504348,77.2083333 146.504348,74.25625 L146.504348,42.6916667 L146.504348,27.25 C146.504348,26.7958333 146.504348,26.1145833 146.278261,25.6604167 C146.730435,24.525 146.504348,23.1625 145.373913,22.0270833 C144.695652,21.3458333 143.791304,21.11875 143.113043,21.11875 C141.982609,20.4375 140.626087,19.9833333 139.043478,19.9833333 L131.130435,19.9833333 L131.130435,17.4854167 C131.130435,14.0791667 133.617391,8.85625 139.947826,8.85625 L197.147826,9.08333333 C197.6,9.08333333 198.052174,9.31041667 198.278261,9.5375 C198.730435,9.99166667 198.956522,10.6729167 198.956522,11.58125 C198.956522,12.2625 198.730435,12.94375 198.278261,13.625 C198.052174,13.8520833 197.6,14.0791667 197.147826,14.30625 L178.156522,14.0791667 L178.156522,14.0791667 L177.478261,14.0791667 L168.66087,14.0791667 L168.66087,14.0791667 C166.852174,14.0791667 165.269565,15.66875 165.269565,17.4854167 C165.269565,19.5291667 166.852174,20.8916667 168.66087,21.11875 L185.165217,21.3458333 C185.617391,21.3458333 186.069565,21.5729167 186.295652,22.0270833 C186.747826,22.48125 186.973913,23.1625 186.973913,24.0708333 C186.973913,25.4333333 186.069565,26.56875 185.165217,26.56875 L185.165217,26.56875 L166.852174,26.3416667 L166.852174,26.3416667 L166.4,26.3416667 L160.069565,26.3416667 L160.069565,26.3416667 C158.26087,26.3416667 156.678261,27.93125 156.678261,29.7479167 C156.678261,31.7916667 158.26087,33.1541667 160.069565,33.38125 L176.573913,33.6083333 C177.026087,33.6083333 177.478261,33.8354167 177.704348,34.2895833 C178.156522,34.74375 178.382609,35.425 178.382609,36.3333333 C178.382609,37.6958333 177.478261,38.83125 176.573913,38.83125 L176.573913,38.83125 L156.226087,38.6041667 L154.643478,38.6041667 L154.643478,38.6041667 C152.834783,38.6041667 151.252174,40.19375 151.252174,42.0104167 C151.252174,44.0541667 152.834783,45.4166667 154.643478,45.64375 L176.573913,45.8708333 L176.573913,45.8708333 C181.321739,45.8708333 185.391304,41.55625 185.391304,36.3333333 C185.391304,35.425 185.165217,34.5166667 184.93913,33.8354167 L185.165217,33.8354167 L185.165217,33.8354167 C189.913043,33.8354167 193.982609,29.5208333 193.982609,24.2979167 C193.982609,23.3895833 193.756522,22.48125 193.530435,21.5729167 L197.147826,21.5729167 L197.147826,21.5729167 C199.408696,21.5729167 201.895652,20.4375 203.478261,18.6208333 C205.06087,16.8041667 205.965217,14.5333333 205.965217,12.0354167 C205.965217,8.85625 205.06087,6.35833333 203.252174,4.54166667 L203.252174,4.54166667 Z M68.0521739,33.1541667 L85.2347826,50.4125 L68.0521739,67.6708333 L68.0521739,33.1541667 L68.0521739,33.1541667 Z M106.93913,56.0895833 C105.356522,57.6791667 102.417391,57.6791667 100.834783,56.0895833 L92.6956522,47.9145833 L92.6956522,47.9145833 L92.6956522,47.9145833 L71.6695652,26.7958333 L135.878261,26.7958333 L115.304348,47.6875 C115.304348,47.6875 115.078261,47.6875 115.078261,47.9145833 C115.078261,47.9145833 115.078261,48.1416667 114.852174,48.1416667 L106.93913,56.0895833 L106.93913,56.0895833 Z M139.721739,67.6708333 L122.53913,50.4125 L139.721739,33.1541667 L139.721739,67.6708333 L139.721739,67.6708333 Z"></path>
                        <path d="M128.869565,74.0291667 C128.417391,73.575 127.513043,73.3479167 126.834783,73.575 C126.156522,73.8020833 125.704348,74.4833333 125.704348,75.1645833 L126.382609,99.9166667 C126.382609,100.597917 126.834783,101.279167 127.513043,101.50625 C127.73913,101.50625 127.965217,101.733333 128.191304,101.733333 C128.643478,101.733333 129.095652,101.50625 129.321739,101.279167 L132.713043,97.8729167 L136.104348,106.047917 C136.330435,106.502083 136.556522,106.729167 137.008696,106.95625 C137.234783,106.95625 137.46087,107.183333 137.686957,107.183333 C137.913043,107.183333 138.13913,107.183333 138.365217,106.95625 L142.208696,105.366667 C143.113043,104.9125 143.565217,104.004167 143.113043,103.095833 L139.721739,94.9208333 L144.469565,94.9208333 C145.147826,94.9208333 145.826087,94.4666667 146.052174,93.7854167 C146.278261,93.1041667 146.278261,92.4229167 145.6,91.96875 L128.869565,74.0291667 L128.869565,74.0291667 Z"></path>
                    </g>
                </g>
            </g>
        </g>
    </g>
</svg>
