<?xml version="1.0" encoding="UTF-8" standalone="no"?>
<svg width="252px" height="252px" viewBox="0 0 252 252" version="1.1" xmlns="http://www.w3.org/2000/svg" xmlns:xlink="http://www.w3.org/1999/xlink" xmlns:sketch="http://www.bohemiancoding.com/sketch/ns">
    <!-- Generator: Sketch 3.4.4 (17249) - http://www.bohemiancoding.com/sketch -->
    <title>scissors</title>
    <desc>Created with Sketch.</desc>
    <defs></defs>
    <g id="Page-1" stroke="none" stroke-width="1" fill="none" fill-rule="evenodd" sketch:type="MSPage">
        <g id="scissors" sketch:type="MSArtboardGroup" fill="#FF4BCD">
            <g sketch:type="MSLayerGroup" transform="translate(36.000000, 60.000000)" id="Group">
                <g sketch:type="MSShapeGroup">
                    <g id="Shape">
                        <path d="M28.1555556,117.457627 C31.0604938,117.457627 33.9654321,116.338983 36.4234568,114.549153 C42.0098765,110.074576 42.9037037,101.79661 38.2111111,96.2033898 C35.7530864,93.0711864 31.954321,91.5050847 28.1555556,91.5050847 C25.2506173,91.5050847 22.345679,92.6237288 19.8876543,94.4135593 C17.2061728,96.6508475 15.4185185,99.7830508 15.1950617,103.138983 C14.7481481,106.494915 15.8654321,110.074576 18.1,112.759322 C20.5580247,115.667797 24.3567901,117.457627 28.1555556,117.457627 L28.1555556,117.457627 Z M20.3345679,103.586441 C20.5580247,101.572881 21.6753086,99.559322 23.2395062,98.2169492 C24.5802469,97.0983051 26.3679012,96.4271186 28.1555556,96.4271186 C30.6135802,96.4271186 32.8481481,97.5457627 34.4123457,99.3355932 C37.0938272,102.691525 36.6469136,107.837288 33.2950617,110.522034 C31.954321,111.640678 30.1666667,112.311864 28.3790123,112.311864 C25.9209877,112.311864 23.6864198,111.19322 22.1222222,109.40339 C20.7814815,107.837288 20.1111111,105.6 20.3345679,103.586441 L20.3345679,103.586441 Z"></path>
                        <path d="M39.7753086,118.576271 C35.9765432,121.708475 31.2839506,123.050847 26.3679012,122.60339 C21.4518519,122.155932 17.2061728,119.694915 14.0777778,115.891525 C13.6308642,115.444068 12.737037,115.220339 12.2901235,115.667797 C11.8432099,116.115254 11.6197531,117.010169 12.0666667,117.457627 C15.6419753,121.708475 20.5580247,124.39322 26.1444444,125.064407 C26.8148148,125.064407 27.708642,125.288136 28.3790123,125.288136 C33.0716049,125.288136 37.7641975,123.722034 41.562963,120.589831 C42.0098765,120.142373 42.2333333,119.247458 41.7864198,118.8 C41.1160494,118.352542 40.2222222,118.128814 39.7753086,118.576271 L39.7753086,118.576271 Z"></path>
                        <path d="M130.275309,13.6474576 C124.912346,13.6474576 119.77284,15.4372881 115.52716,18.7932203 L76.645679,50.3389831 L56.3111111,32.8881356 C57.6518519,23.4915254 54.3,14.0949153 46.9259259,7.83050847 C41.1160494,2.90847458 33.9654321,0.671186441 26.3679012,1.34237288 C18.7703704,2.01355932 12.0666667,5.81694915 7.37407407,11.6338983 C-1.34074074,22.5966102 -0.22345679,38.7050847 9.83209877,48.3254237 C18.1,56.379661 30.3901235,58.3932203 40.6691358,53.4711864 L56.0876543,66.6711864 L40.445679,79.4237288 C36.6469136,77.4101695 32.4012346,76.5152542 28.1555556,76.5152542 C21.2283951,76.5152542 14.7481481,79.2 9.60864198,83.8983051 C-0.67037037,93.5186441 -2.2345679,109.627119 6.25679012,120.813559 C11.6197531,127.749153 19.4407407,131.776271 28.3790123,131.776271 L28.3790123,131.776271 C34.6358025,131.776271 40.8925926,129.538983 45.5851852,125.511864 C52.9592593,119.471186 56.7580247,110.074576 55.6407407,100.901695 L76.4222222,84.1220339 L114.409877,116.786441 C118.879012,120.589831 124.241975,122.379661 129.604938,122.379661 C136.308642,122.379661 142.788889,119.694915 147.481481,114.101695 C147.928395,113.654237 148.151852,112.983051 148.151852,112.311864 C148.151852,111.640678 147.704938,110.969492 147.258025,110.522034 L96.7567901,67.5661017 L148.151852,25.7288136 C148.598765,25.2813559 149.045679,24.6101695 149.045679,23.9389831 C149.045679,23.2677966 148.822222,22.5966102 148.598765,22.1491525 C144.12963,16.779661 137.425926,13.6474576 130.275309,13.6474576 L130.275309,13.6474576 Z M42.9037037,48.9966102 C42.0098765,48.3254237 40.8925926,48.1016949 39.9987654,48.7728814 C31.2839506,53.6949153 20.5580247,52.1288136 13.4074074,45.1932203 C5.36296296,37.3627119 4.4691358,24.1627119 11.3962963,15.2135593 C15.1950617,10.2915254 20.7814815,7.38305085 26.8148148,6.71186441 C32.8481481,6.04067797 38.8814815,8.05423729 43.5740741,12.0813559 C49.8308642,17.4508475 52.5123457,25.7288136 50.9481481,33.559322 C50.7246914,34.4542373 51.1716049,35.3491525 51.8419753,36.020339 L72.6234568,53.6949153 L60.3333333,63.7627119 L42.9037037,48.9966102 L42.9037037,48.9966102 Z M141.671605,112.759322 C134.967901,118.8 124.688889,119.023729 117.761728,112.983051 L80.2209877,80.9898305 L92.7345679,70.9220339 L141.671605,112.759322 L141.671605,112.759322 Z M91.1703704,65.5525424 L91.1703704,65.5525424 L74.6345679,78.9762712 L74.6345679,78.9762712 L51.1716049,98.2169492 C50.5012346,98.8881356 50.054321,99.7830508 50.2777778,100.677966 C51.6185185,108.732203 48.7135802,117.010169 42.2333333,122.155932 C38.2111111,125.511864 33.2950617,127.077966 28.1555556,127.077966 L28.1555556,127.077966 C21.0049383,127.077966 14.5246914,123.722034 10.0555556,118.128814 C3.35185185,108.955932 4.4691358,95.979661 12.737037,88.1491525 C16.982716,84.3457627 22.345679,82.1084746 27.9320988,82.1084746 C31.954321,82.1084746 35.9765432,83.2271186 39.3283951,85.240678 C40.2222222,85.6881356 41.3395062,85.6881356 42.2333333,85.0169492 L118.655556,23.0440678 C122.007407,20.359322 126.02963,19.0169492 130.275309,19.0169492 C134.967901,19.0169492 139.437037,20.8067797 142.788889,23.9389831 L91.1703704,65.5525424 L91.1703704,65.5525424 Z"></path>
                        <path d="M37.7641975,19.240678 C35.3061728,17.2271186 32.4012346,16.1084746 29.2728395,16.1084746 C25.4740741,16.1084746 21.8987654,17.6745763 19.4407407,20.5830508 C17.2061728,23.2677966 16.0888889,26.6237288 16.3123457,29.979661 C16.5358025,33.3355932 18.1,36.6915254 20.7814815,38.9288136 C23.2395062,40.9423729 26.1444444,42.0610169 29.2728395,42.0610169 C33.0716049,42.0610169 36.6469136,40.4949153 39.1049383,37.5864407 C43.7975309,31.9932203 43.1271605,23.7152542 37.7641975,19.240678 L37.7641975,19.240678 Z M35.3061728,34.2305085 C33.7419753,36.020339 31.5074074,36.9152542 29.2728395,36.9152542 C27.4851852,36.9152542 25.4740741,36.2440678 24.1333333,34.9016949 C22.5691358,33.559322 21.4518519,31.5457627 21.4518519,29.5322034 C21.2283951,27.5186441 21.8987654,25.2813559 23.2395062,23.7152542 C24.8037037,21.9254237 27.0382716,21.0305085 29.2728395,21.0305085 C31.0604938,21.0305085 33.0716049,21.7016949 34.4123457,23.0440678 C37.7641975,25.9525424 37.9876543,30.8745763 35.3061728,34.2305085 L35.3061728,34.2305085 Z"></path>
                        <path d="M76.645679,62.6440678 C75.7518519,62.6440678 74.8580247,62.8677966 74.1876543,63.5389831 C73.2938272,64.2101695 72.8469136,65.1050847 72.6234568,66.2237288 C72.4,67.3423729 72.8469136,68.4610169 73.517284,69.1322034 C74.1876543,70.0271186 75.5283951,70.6983051 76.645679,70.6983051 C77.5395062,70.6983051 78.4333333,70.4745763 79.1037037,69.8033898 C80.891358,68.4610169 81.1148148,65.7762712 79.7740741,63.9864407 C78.8802469,63.3152542 77.762963,62.6440678 76.645679,62.6440678 L76.645679,62.6440678 Z M77.3160494,67.5661017 C76.8691358,67.7898305 76.1987654,67.7898305 75.9753086,67.3423729 C75.5283951,66.8949153 75.7518519,66.2237288 76.1987654,66 C76.4222222,65.7762712 76.645679,65.7762712 76.8691358,65.7762712 C77.0925926,65.7762712 77.5395062,66 77.5395062,66.2237288 C77.762963,66.4474576 77.762963,66.6711864 77.762963,66.8949153 C77.5395062,67.1186441 77.3160494,67.3423729 77.3160494,67.5661017 L77.3160494,67.5661017 Z"></path>
                        <path d="M178.318519,66.2237288 L170.274074,66.2237288 C169.603704,66.2237288 168.933333,66.8949153 168.933333,67.5661017 C168.933333,68.2372881 169.603704,68.9084746 170.274074,68.9084746 L178.318519,68.9084746 C178.988889,68.9084746 179.659259,68.2372881 179.659259,67.5661017 C179.659259,66.8949153 178.988889,66.2237288 178.318519,66.2237288 L178.318519,66.2237288 Z"></path>
                        <path d="M161.559259,66.2237288 L152.844444,66.2237288 C152.174074,66.2237288 151.503704,66.8949153 151.503704,67.5661017 C151.503704,68.2372881 152.174074,68.9084746 152.844444,68.9084746 L161.559259,68.9084746 C162.22963,68.9084746 162.9,68.2372881 162.9,67.5661017 C162.9,66.8949153 162.22963,66.2237288 161.559259,66.2237288 L161.559259,66.2237288 Z"></path>
                        <path d="M136.755556,66.2237288 C136.085185,66.2237288 135.414815,66.8949153 135.414815,67.5661017 C135.414815,68.2372881 136.085185,68.9084746 136.755556,68.9084746 L144.8,68.9084746 C145.47037,68.9084746 146.140741,68.2372881 146.140741,67.5661017 C146.140741,66.8949153 145.47037,66.2237288 144.8,66.2237288 L136.755556,66.2237288 L136.755556,66.2237288 Z"></path>
                        <path d="M120.44321,66.2237288 C119.77284,66.2237288 119.102469,66.8949153 119.102469,67.5661017 C119.102469,68.2372881 119.77284,68.9084746 120.44321,68.9084746 L128.487654,68.9084746 C129.158025,68.9084746 129.828395,68.2372881 129.828395,67.5661017 C129.828395,66.8949153 129.158025,66.2237288 128.487654,66.2237288 L120.44321,66.2237288 L120.44321,66.2237288 Z"></path>
                        <path d="M104.801235,66.2237288 C104.130864,66.2237288 103.460494,66.8949153 103.460494,67.5661017 C103.460494,68.2372881 104.130864,68.9084746 104.801235,68.9084746 L112.845679,68.9084746 C113.516049,68.9084746 114.18642,68.2372881 114.18642,67.5661017 C114.18642,66.8949153 113.516049,66.2237288 112.845679,66.2237288 L104.801235,66.2237288 L104.801235,66.2237288 Z"></path>
                    </g>
                </g>
            </g>
        </g>
    </g>
</svg>
