<!-- Generator: Adobe Illustrator 17.0.0, SVG Export Plug-In  -->
<svg version="1.1"
     xmlns="http://www.w3.org/2000/svg" xmlns:xlink="http://www.w3.org/1999/xlink" xmlns:a="http://ns.adobe.com/AdobeSVGViewerExtensions/3.0/"
     x="0px" y="0px" width="65.5px" height="24px" viewBox="0 0 65.5 24" enable-background="new 0 0 65.5 24" xml:space="preserve">
<defs>
</defs>
<g>
    <g>
        <path fill="#FFFFFF" d="M56.53,5.596h-1.769v12.442h1.769c0.951,0,1.733-0.781,1.733-1.733V7.363
            C58.263,6.378,57.481,5.596,56.53,5.596z"/>
        <path fill="#FFFFFF" d="M17.5,0L8.75,12l8.75,12l48,0V0H17.5z M28.412,5.052c0,0.306-0.238,0.544-0.544,0.544H24.91v5.134h2.958
            c0.306,0,0.544,0.237,0.544,0.544v1.088c0,0.306-0.238,0.544-0.544,0.544H24.91v6.799c0,0.307-0.237,0.544-0.544,0.544h-1.088
            c-0.306,0-0.544-0.237-0.544-0.544V4.508c0-0.612,0.477-1.088,1.088-1.088h4.046c0.306,0,0.544,0.238,0.544,0.544V5.052z
             M39.087,16.305c0,2.176-1.768,3.943-3.909,3.943c-2.176,0-3.944-1.768-3.944-3.943V3.964c0-0.306,0.272-0.544,0.544-0.544h1.088
            c0.307,0,0.544,0.238,0.544,0.544v12.341c0,0.986,0.782,1.768,1.769,1.768c0.951,0,1.733-0.781,1.733-1.768V3.964
            c0-0.306,0.238-0.544,0.544-0.544h1.088c0.306,0,0.544,0.238,0.544,0.544V16.305z M49.763,19.704c0,0.272-0.238,0.544-0.544,0.544
            h-1.088c-0.306,0-0.544-0.271-0.544-0.544V7.329c0-0.951-0.782-1.733-1.733-1.733c-0.986,0-1.769,0.782-1.769,1.733v12.375
            c0,0.272-0.237,0.544-0.544,0.544h-1.088c-0.306,0-0.544-0.271-0.544-0.544V7.329c0-2.142,1.769-3.909,3.944-3.909
            c2.142,0,3.909,1.768,3.909,3.909V19.704z M60.439,16.305c0,2.176-1.733,3.943-3.909,3.943h-2.856
            c-0.577,0-1.088-0.51-1.088-1.088V4.508c0-0.612,0.511-1.088,1.088-1.088h2.856c2.176,0,3.909,1.768,3.909,3.943V16.305z"/>
    </g>
    <polygon opacity="0.7" fill="#FF4BCD" points="0,24 17.5,24 8.75,12  "/>
    <polygon opacity="0.8" fill="#5BDFFF" points="65.5,0 65.5,0 0,0 8.75,12 17.5,0  "/>
</g>
</svg>
