<!-- Generator: Adobe Illustrator 17.0.0, SVG Export Plug-In  -->
<svg version="1.1"
     xmlns="http://www.w3.org/2000/svg" xmlns:xlink="http://www.w3.org/1999/xlink" xmlns:a="http://ns.adobe.com/AdobeSVGViewerExtensions/3.0/"
     x="0px" y="0px" width="70.648px" height="70.648px" viewBox="0 0 70.648 70.648" enable-background="new 0 0 70.648 70.648"
     xml:space="preserve">
<defs>
</defs>
<g>
    <path fill="#FFFFFF" d="M0,0v70.648h70.648V0H0z M22.149,51.554c0,0.306-0.238,0.544-0.544,0.544h-2.958v5.133h2.958
        c0.306,0,0.544,0.238,0.544,0.544v1.088c0,0.306-0.238,0.544-0.544,0.544h-2.958v6.799c0,0.306-0.238,0.544-0.544,0.544h-1.088
        c-0.306,0-0.544-0.238-0.544-0.544V51.01c0-0.612,0.476-1.088,1.088-1.088h4.046c0.306,0,0.544,0.238,0.544,0.544V51.554z
         M32.825,62.806c0,2.176-1.769,3.944-3.91,3.944c-2.176,0-3.943-1.768-3.943-3.944v-12.34c0-0.306,0.271-0.544,0.544-0.544h1.088
        c0.306,0,0.544,0.238,0.544,0.544v12.34c0,0.986,0.782,1.768,1.768,1.768c0.952,0,1.734-0.782,1.734-1.768v-12.34
        c0-0.306,0.237-0.544,0.544-0.544h1.088c0.306,0,0.544,0.238,0.544,0.544V62.806z M43.501,66.206c0,0.272-0.238,0.544-0.544,0.544
        h-1.088c-0.307,0-0.544-0.272-0.544-0.544V53.832c0-0.952-0.782-1.734-1.734-1.734c-0.985,0-1.768,0.782-1.768,1.734v12.375
        c0,0.272-0.238,0.544-0.544,0.544h-1.088c-0.306,0-0.544-0.272-0.544-0.544V53.832c0-2.142,1.768-3.91,3.943-3.91
        c2.142,0,3.91,1.768,3.91,3.91V66.206z M44.907,11.146c0,2.064-0.602,3.956-1.72,5.504l-4.988,8.944l4.988,8.944
        c1.118,1.548,1.72,3.44,1.72,5.504v5.332c0,0.688-0.602,1.376-1.376,1.376h-2.752c-0.774,0-1.376-0.688-1.376-1.376v-5.332
        c0-0.516-0.086-1.032-0.258-1.462l-4.214-7.396l-4.128,7.396c-0.172,0.43-0.258,0.946-0.258,1.462v5.332
        c0,0.688-0.603,1.376-1.376,1.376h-2.752c-0.774,0-1.376-0.688-1.376-1.376v-5.332c0-2.064,0.602-3.956,1.72-5.504l4.987-8.944
        l-5.073-8.944c-1.032-1.548-1.634-3.44-1.634-5.504v-5.59c0-0.774,0.602-1.376,1.376-1.376h2.752c0.773,0,1.376,0.602,1.376,1.376
        v5.59c0,0.516,0.086,0.946,0.258,1.462l4.128,7.31l4.214-7.31c0.172-0.516,0.258-0.946,0.258-1.462v-5.59
        c0-0.774,0.602-1.376,1.376-1.376h2.752c0.774,0,1.376,0.602,1.376,1.376V11.146z M54.177,62.806c0,2.176-1.734,3.944-3.91,3.944
        h-2.855c-0.578,0-1.088-0.51-1.088-1.088V51.01c0-0.612,0.51-1.088,1.088-1.088h2.855c2.176,0,3.91,1.768,3.91,3.943V62.806z"/>
    <path fill="#FFFFFF" d="M50.266,52.098h-1.768V64.54h1.768c0.952,0,1.734-0.782,1.734-1.734v-8.941
        C52.001,52.879,51.219,52.098,50.266,52.098z"/>
</g>
</svg>
