<!-- Generator: Adobe Illustrator 17.0.0, SVG Export Plug-In  -->
<svg version="1.1"
     xmlns="http://www.w3.org/2000/svg" xmlns:xlink="http://www.w3.org/1999/xlink" xmlns:a="http://ns.adobe.com/AdobeSVGViewerExtensions/3.0/"
     x="0px" y="0px" width="66.983px" height="25px" viewBox="0 0 66.983 25" enable-background="new 0 0 66.983 25"
     xml:space="preserve">
<defs>
</defs>
<g>
    <path fill="#FFFFFF" d="M57.513,6.096h-1.768v12.442h1.768c0.952,0,1.733-0.782,1.733-1.733V7.863
        C59.247,6.877,58.465,6.096,57.513,6.096z"/>
    <path fill="#FFFFFF" d="M0,0l9.115,12.5L0,25h18.229h48.254h0.5V0H0z M1.967,24l7.767-10.651L17.5,24H1.967z M9.733,11.651L1.967,1
        H17.5L9.733,11.651z M29.395,5.552c0,0.306-0.238,0.544-0.544,0.544h-2.958v5.133h2.958c0.306,0,0.544,0.238,0.544,0.544v1.088
        c0,0.307-0.238,0.544-0.544,0.544h-2.958v6.8c0,0.306-0.238,0.544-0.544,0.544h-1.088c-0.306,0-0.544-0.238-0.544-0.544V5.008
        c0-0.612,0.476-1.088,1.088-1.088h4.045c0.306,0,0.544,0.237,0.544,0.544V5.552z M40.071,16.805c0,2.176-1.768,3.943-3.909,3.943
        c-2.176,0-3.944-1.768-3.944-3.943V4.464c0-0.307,0.272-0.544,0.544-0.544h1.088c0.306,0,0.544,0.237,0.544,0.544v12.341
        c0,0.985,0.782,1.768,1.768,1.768c0.952,0,1.733-0.782,1.733-1.768V4.464c0-0.307,0.238-0.544,0.544-0.544h1.088
        c0.306,0,0.544,0.237,0.544,0.544V16.805z M50.747,20.204c0,0.271-0.238,0.544-0.544,0.544h-1.088
        c-0.306,0-0.544-0.272-0.544-0.544V7.829c0-0.952-0.782-1.733-1.733-1.733c-0.986,0-1.768,0.781-1.768,1.733v12.375
        c0,0.271-0.238,0.544-0.544,0.544h-1.088c-0.306,0-0.544-0.272-0.544-0.544V7.829c0-2.142,1.768-3.909,3.944-3.909
        c2.142,0,3.909,1.768,3.909,3.909V20.204z M61.422,16.805c0,2.176-1.733,3.943-3.909,3.943h-2.856c-0.578,0-1.088-0.51-1.088-1.088
        V5.008c0-0.612,0.51-1.088,1.088-1.088h2.856c2.176,0,3.909,1.768,3.909,3.943V16.805z"/>
</g>
</svg>
