<!-- Generator: Adobe Illustrator 17.0.0, SVG Export Plug-In  -->
<svg version="1.1"
     xmlns="http://www.w3.org/2000/svg" xmlns:xlink="http://www.w3.org/1999/xlink" xmlns:a="http://ns.adobe.com/AdobeSVGViewerExtensions/3.0/"
     x="0px" y="0px" width="41.58px" height="19.404px" viewBox="0 0 41.58 19.404" enable-background="new 0 0 41.58 19.404"
     xml:space="preserve">
<defs>
</defs>
<g>
    <path fill="#FBFBE9" d="M29.4,17.725l-8.736-4.872l-8.736,4.872c-1.512,1.092-3.36,1.68-5.376,1.68l-5.208,0
        C0.672,19.404,0,18.816,0,18.061l0-2.688c0-0.756,0.672-1.344,1.344-1.344l5.208,0c0.504,0,1.008-0.084,1.428-0.252l7.224-4.116
        L7.98,5.628C7.56,5.46,7.056,5.376,6.552,5.376l-5.208,0C0.672,5.376,0,4.788,0,4.032l0-2.688C0,0.588,0.672,0,1.344,0l5.208,0
        c2.016,0,3.864,0.588,5.376,1.681l8.736,4.871L29.4,1.597C30.912,0.588,32.76,0,34.776,0l5.46,0c0.756,0,1.344,0.588,1.344,1.344
        l0,2.688c0,0.756-0.588,1.344-1.344,1.344l-5.46,0c-0.504,0-0.924,0.084-1.428,0.252l-7.14,4.032l7.14,4.116
        c0.504,0.168,0.924,0.252,1.428,0.252l5.46,0c0.756,0,1.344,0.588,1.344,1.344l0,2.688c0,0.756-0.588,1.344-1.344,1.344l-5.46,0
        C32.76,19.404,30.912,18.816,29.4,17.725z"/>
</g>
</svg>
