<!-- Generator: Adobe Illustrator 17.0.0, SVG Export Plug-In  -->
<svg version="1.1"
     xmlns="http://www.w3.org/2000/svg" xmlns:xlink="http://www.w3.org/1999/xlink" xmlns:a="http://ns.adobe.com/AdobeSVGViewerExtensions/3.0/"
     x="0px" y="0px" width="50px" height="50px" viewBox="0 0 50 50" enable-background="new 0 0 50 50" xml:space="preserve">
<g>
    <path fill="#3BB3CD" d="M34.011,33.733l-8.736-4.872l-8.736,4.872c-1.512,1.092-3.36,1.68-5.376,1.68l-5.208,0
        c-0.672,0-1.344-0.588-1.344-1.344l0-2.688c0-0.756,0.672-1.344,1.344-1.344l5.208,0c0.504,0,1.008-0.084,1.428-0.252l7.224-4.116
        l-7.224-4.032c-0.42-0.168-0.924-0.252-1.428-0.252l-5.208,0c-0.672,0-1.344-0.588-1.344-1.344l0-2.688
        c0-0.756,0.672-1.344,1.344-1.344l5.208,0c2.016,0,3.864,0.588,5.376,1.681l8.736,4.871l8.736-4.955
        c1.512-1.009,3.36-1.597,5.376-1.597l5.46,0c0.756,0,1.344,0.588,1.344,1.344l0,2.688c0,0.756-0.588,1.344-1.344,1.344l-5.46,0
        c-0.504,0-0.924,0.084-1.428,0.252l-7.14,4.032l7.14,4.116c0.504,0.168,0.924,0.252,1.428,0.252l5.46,0
        c0.756,0,1.344,0.588,1.344,1.344l0,2.688c0,0.756-0.588,1.344-1.344,1.344l-5.46,0C37.371,35.412,35.524,34.824,34.011,33.733z"/>
</g>
</svg>
